<?xml version="1.0" encoding="iso-8859-1"?>
<!-- Generator: Adobe Illustrator 19.0.0, SVG Export Plug-In . SVG Version: 6.00 Build 0)  -->
<svg version="1.1" id="Layer_1" xmlns="http://www.w3.org/2000/svg" xmlns:xlink="http://www.w3.org/1999/xlink" x="0px" y="0px"
	 viewBox="0 0 512 512" style="enable-background:new 0 0 512 512;" xml:space="preserve">
<circle style="fill:#BCB6B8;" cx="256" cy="256" r="247.83"/>
<circle style="fill:#D2CFCE;" cx="256" cy="256" r="177.021"/>
<g>
	<circle style="fill:#8C8484;" cx="256" cy="152.151" r="43.475"/>
	<path style="fill:#8C8484;" d="M326.079,280.031v40.448c0,53.422-70.079,82.846-70.079,82.846l-21.787-134.188L326.079,280.031z"/>
</g>
<path style="fill:#BCB6B8;" d="M256,258.244v145.081c0,0-70.079-29.424-70.079-82.846v-40.448L256,258.244z"/>
<path style="fill:#A8A2A2;" d="M303.877,212.665c-10.883,5.654-28.269,9.314-47.877,9.314s-36.995-3.66-47.877-9.314l-37.637,36.962
	l15.436,30.404h140.157l15.436-30.404L303.877,212.665z"/>
<path d="M309.605,206.834c-2.525-2.478-6.356-3.052-9.493-1.422c-10.118,5.257-26.609,8.397-44.113,8.397
	s-33.995-3.138-44.113-8.397c-3.137-1.631-6.97-1.058-9.493,1.422l-37.631,36.963c-2.54,2.496-3.172,6.35-1.561,9.525l14.544,28.663
	v38.495c0,57.892,71.288,88.775,75.028,90.354c0.514,0.221,1.055,0.391,1.616,0.503c0.047,0.009,0.094,0.013,0.142,0.022
	c0.215,0.039,0.431,0.075,0.655,0.098c0.27,0.027,0.541,0.041,0.814,0.041s0.544-0.014,0.814-0.041
	c0.222-0.023,0.439-0.059,0.655-0.098c0.048-0.009,0.095-0.012,0.142-0.022c0.563-0.113,1.102-0.283,1.616-0.503
	c3.745-1.581,75.028-32.464,75.028-90.354v-38.495l14.544-28.663c1.611-3.177,0.979-7.03-1.561-9.525L309.605,206.834z
	 M247.83,390.09c-18.646-10.386-53.743-34.589-53.743-69.609v-32.279h53.743V390.09z M317.913,320.479
	c0,34.91-35.096,59.164-53.743,69.586V288.2h53.743V320.479z M321.066,271.86H190.934l-10.451-20.598l29.357-28.837
	c12.217,4.944,28.639,7.722,46.161,7.722s33.943-2.779,46.161-7.722l29.357,28.837L321.066,271.86z M256,203.795
	c28.478,0,51.646-23.169,51.646-51.647S284.478,100.502,256,100.502s-51.646,23.169-51.646,51.646S227.522,203.795,256,203.795z
	 M256,116.843c19.467,0,35.305,15.838,35.305,35.305S275.467,187.454,256,187.454c-19.467,0-35.305-15.838-35.305-35.306
	S236.533,116.843,256,116.843z M231.135,152.148c0-13.711,11.154-24.865,24.865-24.865c4.513,0,8.17,3.658,8.17,8.17
	c0,4.512-3.657,8.17-8.17,8.17c-4.699,0-8.524,3.824-8.524,8.524c0,4.701,3.825,8.525,8.524,8.525c4.513,0,8.17,3.658,8.17,8.17
	s-3.657,8.17-8.17,8.17C242.289,177.014,231.135,165.859,231.135,152.148z M263.943,152.148c0-4.826,3.926-8.752,8.752-8.752
	s8.752,3.926,8.752,8.752s-3.926,8.753-8.752,8.753C267.869,160.901,263.943,156.975,263.943,152.148z M437.019,74.981
	C388.667,26.628,324.38,0,256,0S123.333,26.628,74.981,74.981C26.628,123.332,0,187.62,0,256s26.628,132.668,74.981,181.019
	C123.333,485.372,187.62,512,256,512s132.667-26.628,181.019-74.981C485.372,388.668,512,324.38,512,256
	S485.372,123.332,437.019,74.981z M256,495.66c-132.149,0-239.66-107.51-239.66-239.66S123.851,16.34,256,16.34
	S495.66,123.851,495.66,256S388.149,495.66,256,495.66z M59.113,154.024c-2.511-3.75-1.508-8.824,2.243-11.335l20.171-13.508
	l6.656-23.344c0.714-2.501,2.575-4.513,5.014-5.418l22.757-8.449l11.891-21.161c1.276-2.269,3.556-3.794,6.139-4.107l24.102-2.925
	l16.511-17.798c1.772-1.911,4.351-2.863,6.935-2.559l24.117,2.813l20.232-13.422c1.354-0.899,2.927-1.362,4.512-1.362
	c0.951,0,1.906,0.164,2.823,0.501L256,40.317l22.784-8.37c2.44-0.898,5.165-0.578,7.334,0.862l20.232,13.422l24.117-2.813
	c2.586-0.298,5.164,0.648,6.935,2.559l16.511,17.799l24.102,2.925c2.583,0.313,4.863,1.839,6.139,4.107l11.894,21.16l22.756,8.448
	c2.438,0.906,4.3,2.917,5.014,5.42l6.656,23.344l20.171,13.507c3.75,2.511,4.753,7.585,2.243,11.335
	c-2.51,3.75-7.586,4.752-11.334,2.243l-22.66-15.175c-1.608-1.076-2.781-2.689-3.312-4.548l-6.343-22.246l-21.686-8.053
	c-1.814-0.673-3.331-1.968-4.279-3.655L371.94,82.424l-22.963-2.787c-0.015-0.002-0.029-0.005-0.045-0.008
	c-0.115-0.015-0.23-0.037-0.345-0.058c-0.131-0.023-0.263-0.044-0.392-0.071c-0.122-0.027-0.245-0.063-0.367-0.095
	c-0.117-0.032-0.235-0.063-0.351-0.1c-0.127-0.041-0.253-0.087-0.379-0.134c-0.108-0.04-0.215-0.082-0.319-0.126
	c-0.127-0.053-0.252-0.111-0.377-0.171c-0.102-0.049-0.203-0.101-0.303-0.155c-0.12-0.064-0.24-0.132-0.356-0.203
	c-0.105-0.063-0.205-0.13-0.306-0.197c-0.108-0.071-0.214-0.142-0.318-0.219c-0.118-0.087-0.231-0.181-0.344-0.273
	c-0.082-0.068-0.164-0.132-0.246-0.204c-0.193-0.171-0.379-0.351-0.556-0.541l-15.728-16.954l-22.969,2.679
	c-0.48,0.056-0.962,0.069-1.438,0.039c-1.43-0.086-2.818-0.546-4.025-1.346l-19.275-12.788L258.82,56.69
	c-1.819,0.668-3.815,0.668-5.634,0l-21.716-7.977l-19.275,12.788c-1.207,0.801-2.599,1.26-4.027,1.346
	c-0.477,0.029-0.956,0.016-1.435-0.039l-22.97-2.678L168.03,77.083c-0.183,0.197-0.376,0.381-0.574,0.558
	c-0.076,0.069-0.157,0.13-0.235,0.194c-0.123,0.101-0.248,0.202-0.377,0.295c-0.099,0.072-0.199,0.139-0.3,0.207
	c-0.115,0.075-0.232,0.149-0.35,0.219c-0.111,0.065-0.22,0.13-0.332,0.187c-0.119,0.063-0.241,0.121-0.363,0.178
	c-0.112,0.052-0.222,0.107-0.338,0.155c-0.145,0.06-0.293,0.111-0.44,0.161c-0.094,0.033-0.186,0.071-0.281,0.1
	c-0.241,0.073-0.485,0.136-0.732,0.187c-0.082,0.017-0.164,0.026-0.247,0.041c-0.146,0.025-0.291,0.054-0.437,0.072l-22.963,2.787
	l-11.334,20.164c-0.948,1.687-2.465,2.983-4.279,3.656l-21.687,8.053l-6.343,22.247c-0.531,1.861-1.704,3.472-3.312,4.548
	l-22.66,15.175c-1.395,0.935-2.975,1.383-4.538,1.383C63.274,157.648,60.688,156.377,59.113,154.024z M339.528,461.413
	c-0.522,4.483-4.568,7.689-9.061,7.169l-24.116-2.813l-20.232,13.422c-1.357,0.9-2.93,1.362-4.518,1.362
	c-0.949,0-1.902-0.166-2.816-0.501L256,471.683l-22.784,8.37c-2.442,0.897-5.166,0.576-7.334-0.861l-20.232-13.422l-24.117,2.812
	c-4.475,0.515-8.538-2.687-9.06-7.169c-0.523-4.482,2.687-8.538,7.169-9.061l27.087-3.158c1.915-0.224,3.853,0.239,5.463,1.307
	l19.275,12.788l21.716-7.977c1.819-0.668,3.815-0.668,5.634,0l21.716,7.977L299.81,450.5c1.61-1.066,3.548-1.532,5.463-1.307
	l27.087,3.158C336.84,452.874,340.051,456.931,339.528,461.413z M256,70.809C153.885,70.809,70.809,153.885,70.809,256
	S153.885,441.191,256,441.191S441.191,358.115,441.191,256S358.115,70.809,256,70.809z M256,424.851
	c-93.106,0-168.851-75.747-168.851-168.851S162.894,87.149,256,87.149S424.851,162.896,424.851,256S349.106,424.851,256,424.851z
	 M153.519,432.732c-1.558,2.448-4.201,3.787-6.902,3.787c-1.5,0-3.018-0.413-4.377-1.277
	c-15.987-10.167-30.289-22.215-42.728-35.735l-29.155-11.44c-4.199-1.648-6.269-6.389-4.62-10.59
	c1.648-4.2,6.385-6.273,10.591-4.621l3.159,1.24c-3.916-5.844-7.527-11.879-10.836-18.078L43.347,337.75
	c-3.658-2.641-4.484-7.748-1.842-11.407c2.641-3.659,7.75-4.484,11.407-1.842l2.782,2.009c-2.307-6.584-4.29-13.299-5.942-20.123
	l-20.053-24.09c-2.886-3.469-2.415-8.62,1.053-11.507c3.467-2.888,8.619-2.416,11.507,1.052l2.296,2.759
	c-0.533-6.148-0.822-12.35-0.822-18.601c0-0.782,0.027-1.563,0.036-2.344l-13.499-28.464c-1.934-4.077-0.196-8.949,3.881-10.883
	c4.076-1.934,8.95-0.196,10.883,3.881l1.525,3.216c1.003-6.125,2.258-12.201,3.793-18.2c1.118-4.371,5.564-7.01,9.942-5.889
	c4.372,1.119,7.008,5.57,5.888,9.94c-4.055,15.836-6.109,32.235-6.109,48.742c0,31.96,7.658,62.668,21.772,89.992
	c0.353,0.516,0.645,1.066,0.868,1.639c7.382,13.963,16.458,27.021,27.079,38.882c0.476,0.417,0.899,0.881,1.26,1.388
	c11.602,12.71,24.976,24.025,39.956,33.55C154.816,423.874,155.94,428.923,153.519,432.732z M462.249,306.386
	c-1.654,6.824-3.635,13.538-5.942,20.123l2.782-2.009c3.657-2.638,8.766-1.816,11.407,1.842c2.642,3.658,1.816,8.765-1.842,11.407
	l-25.305,18.266c-3.309,6.198-6.921,12.234-10.836,18.078l3.159-1.24c4.206-1.649,8.943,0.42,10.591,4.621
	c1.649,4.201-0.42,8.941-4.62,10.59l-29.155,11.44c-12.438,13.521-26.741,25.568-42.728,35.735
	c-1.358,0.864-2.877,1.277-4.377,1.277c-2.701,0-5.344-1.339-6.902-3.787c-2.422-3.808-1.296-8.858,2.511-11.279
	c14.98-9.526,28.353-20.842,39.956-33.55c0.362-0.507,0.785-0.972,1.26-1.388c10.621-11.862,19.698-24.918,27.079-38.881
	c0.223-0.573,0.515-1.123,0.868-1.639c14.114-27.324,21.772-58.033,21.772-89.992c0-16.507-2.056-32.906-6.109-48.742
	c-1.119-4.372,1.517-8.822,5.888-9.94c4.374-1.121,8.824,1.517,9.942,5.889c1.536,5.999,2.791,12.076,3.794,18.201l1.525-3.218
	c1.935-4.076,6.806-5.813,10.883-3.881c4.077,1.934,5.815,6.806,3.881,10.883l-13.5,28.464c0.009,0.782,0.036,1.562,0.036,2.344
	c0,6.251-0.291,12.452-0.822,18.601l2.296-2.759c2.886-3.469,8.038-3.94,11.507-1.052c3.469,2.887,3.939,8.038,1.053,11.507
	L462.249,306.386z"/>
<g>
</g>
<g>
</g>
<g>
</g>
<g>
</g>
<g>
</g>
<g>
</g>
<g>
</g>
<g>
</g>
<g>
</g>
<g>
</g>
<g>
</g>
<g>
</g>
<g>
</g>
<g>
</g>
<g>
</g>
</svg>
