<svg viewBox="-79 0 512 512" xmlns="http://www.w3.org/2000/svg"><path d="m176.859375 501.261719c-4.292969 0-7.769531-3.480469-7.769531-7.769531v-37.210938c0-4.289062 3.476562-7.769531 7.769531-7.769531 4.289063 0 7.769531 3.480469 7.769531 7.769531v37.210938c0 4.289062-3.480468 7.769531-7.769531 7.769531zm0 0" fill="#707487"/><path d="m319.316406 292.296875c-.101562-.242187-.214844-.476563-.339844-.703125-.570312-1.203125-1.144531-2.40625-1.730468-3.597656-9.355469-19.027344-20.28125-36.007813-32.390625-50.546875-.355469-.558594-.785157-1.0625-1.269531-1.511719-17.945313-21.15625-38.425782-36.976562-60.199219-46.148438-3.953125-1.664062-8.507813.1875-10.175781 4.144532-.074219.175781-.132813.351562-.191407.53125-11.101562-9.128906-22.925781-13.96875-35.152343-14.222656-.339844-.019532-.675782-.03125-1.011719-.03125-.332031 0-.671875.011718-1.011719.03125-12.21875.253906-24.039062 5.089843-35.132812 14.207031-.0625-.175781-.121094-.351563-.191407-.527344-1.667969-3.953125-6.222656-5.8125-10.175781-4.144531-21.777344 9.171875-42.253906 24.992187-60.203125 46.144531-.5.457031-.9375.976563-1.300781 1.546875-12.097656 14.53125-23.019532 31.5-32.363282 50.511719-23.863281 48.550781-36.476562 106.746093-36.476562 168.300781 0 4.292969 3.476562 7.769531 7.769531 7.769531h338.183594c4.289063 0 7.769531-3.476562 7.769531-7.769531 0-59.738281-11.886718-116.316406-34.40625-163.984375zm-46.851562 156.214844h-48.660156c-.054688-12.882813-.238282-25.613281-.550782-38.121094h47.738282c.835937 12.496094 1.332031 25.226563 1.472656 38.121094zm-189.742188-38.121094h47.738282c-.3125 12.507813-.496094 25.238281-.550782 38.121094h-48.660156c.140625-12.894531.636719-25.625 1.472656-38.121094zm-54.96875-53.65625h45.160156c-1.878906 12.371094-3.402343 25.105469-4.558593 38.117187h-48.316407c1.949219-13.027343 4.523438-25.757812 7.714844-38.117187zm18.777344-53.660156h37.367188c-3.210938 12.15625-6.019532 24.898437-8.40625 38.121093h-43.347657c4.074219-13.226562 8.875-25.972656 14.386719-38.121093zm32.589844-53.667969h23.335937c-2.054687 4.578125-4.050781 9.367188-5.976562 14.363281-2.917969 7.570313-5.636719 15.511719-8.164063 23.769531h-34.164062c7.480468-14.128906 15.871094-26.90625 24.96875-38.132812zm14.050781-15.539062c10.546875-10.410157 21.804687-18.886719 33.523437-25.144532-5.808593 7.121094-11.347656 15.519532-16.566406 25.144532zm83.6875-37.761719c1.8125 1.679687 7.621094 9.042969 13.980469 37.761719h-27.964844c6.363281-28.71875 12.171875-36.082032 13.984375-37.761719zm17.070313 53.300781c1.289062 7.183594 2.578124 15.3125 3.839843 24.527344.601563 4.414062 1.183594 8.953125 1.738281 13.601562h-45.300781c.558594-4.648437 1.136719-9.1875 1.742188-13.601562 1.261719-9.214844 2.546875-17.34375 3.835937-24.527344zm80.664062 0c9.097656 11.226562 17.488281 24.003906 24.96875 38.128906h-34.164062c-2.527344-8.253906-5.246094-16.195312-8.164063-23.765625-1.925781-4.996093-3.921875-9.785156-5.976563-14.363281zm-31.007812-15.539062c-5.214844-9.621094-10.753907-18.019532-16.5625-25.140626 11.71875 6.257813 22.976562 14.734376 33.523437 25.140626zm-35.320313 214.644531h-62.816406c.054687-12.871094.242187-25.601563.558593-38.121094h61.699219c.316407 12.519531.507813 25.25.558594 38.121094zm-61.796875-53.660157c.449219-13.019531 1.039062-25.753906 1.765625-38.117187h57.246094c.726562 12.363281 1.316406 25.097656 1.765625 38.117187zm2.761719-53.65625c.925781-13.253906 2.011719-26.003906 3.257812-38.121093h48.742188c1.242187 12.117187 2.328125 24.867187 3.253906 38.121093zm-15.585938 0h-42.371093c2.472656-13.269531 5.375-26.019531 8.699218-38.121093h36.890625c-1.226562 12.144531-2.304687 24.882812-3.21875 38.121093zm83.207031-38.121093h36.890626c3.324218 12.101562 6.226562 24.851562 8.699218 38.121093h-42.371094c-.914062-13.238281-1.992187-25.976562-3.21875-38.121093zm52.964844 0h37.367188c5.515625 12.148437 10.3125 24.894531 14.386718 38.121093h-43.347656c-2.386718-13.222656-5.195312-25.964843-8.40625-38.121093zm-27.082031-33.714844c2.25 5.835937 4.378906 11.90625 6.390625 18.175781h-33.972656c-.898438-7.65625-1.863282-15.042968-2.890625-22.09375-.835938-5.714844-1.6875-11.046875-2.550781-16.035156h24.390624c3.003907 6.175781 5.886719 12.828125 8.632813 19.953125zm-101.277344-3.917969c-1.03125 7.054688-1.996093 14.4375-2.894531 22.09375h-33.972656c2.011718-6.269531 4.140625-12.339844 6.390625-18.175781 2.746093-7.125 5.632812-13.777344 8.632812-19.953125h24.390625c-.863281 4.988281-1.714844 10.320312-2.546875 16.035156zm-52.839843 91.292969h44.042968c-.714844 12.367187-1.296875 25.097656-1.738281 38.117187h-46.972656c1.1875-13.035156 2.742187-25.773437 4.667969-38.117187zm134.179687 38.117187c-.441406-13.019531-1.023437-25.753906-1.742187-38.117187h44.042968c1.925782 12.34375 3.480469 25.082031 4.667969 38.117187zm58.003906-38.117187h45.167969c3.1875 12.359375 5.761719 25.089844 7.714844 38.117187h-48.324219c-1.15625-13.011718-2.679687-25.746093-4.558594-38.117187zm-55.117187-122.867187h-18.933594c-2.8125-13.375-5.726562-23.488282-8.664062-31.109376 9.625 6.339844 18.964843 16.867188 27.597656 31.109376zm-70.054688-31.109376c-2.9375 7.621094-5.851562 17.734376-8.664062 31.109376h-18.933594c8.632812-14.242188 17.972656-24.769532 27.597656-31.109376zm-137.605468 207.632813h49.132812c-.816406 12.511719-1.300781 25.242187-1.441406 38.125h-50.109375c.234375-12.90625 1.046875-25.632813 2.417969-38.125zm269.976562 38.125c-.140625-12.882813-.621094-25.613281-1.441406-38.125h49.136718c1.371094 12.492187 2.1875 25.21875 2.417969 38.125zm0 0" fill="#c7cfe2"/><path d="m219.542969 148.65625c-1.46875 7.367188-2.195313 14.824219-2.195313 22.25 0 6.164062.5 12.304688 1.496094 18.367188.539062 3.308593-2.625 5.964843-5.792969 4.871093-11.664062-4.039062-23.773437-6.164062-36.195312-6.164062s-24.527344 2.125-36.183594 6.15625c-3.160156 1.09375-6.332031-1.550781-5.789063-4.855469 2.1875-13.386719 1.980469-27.144531-.707031-40.625l-13.941406-70.015625c-.746094-3.78125 1.210937-7.582031 4.734375-9.15625l24.414062-10.894531c7.523438-3.367188 12.753907-10.402344 13.789063-18.574219l1.15625-9.085937c.109375-.863282.84375-1.511719 1.714844-1.511719h21.628906c.867187 0 1.605469.648437 1.714844 1.511719l1.152343 9.085937c1.046876 8.171875 6.269532 15.207031 13.789063 18.574219l24.417969 10.894531c3.519531 1.574219 5.488281 5.375 4.734375 9.15625zm0 0" fill="#ffd6b1"/><path d="m228.742188 69.484375-24.414063-10.894531c-7.523437-3.367188-12.742187-10.402344-13.789063-18.574219l-1.15625-9.085937c-.109374-.863282-.84375-1.511719-1.714843-1.511719h-21.628907c-.867187 0-1.601562.648437-1.714843 1.511719l-1.152344 9.085937c-.382813 2.996094-1.328125 5.835937-2.742187 8.398437 2.441406 4.433594 6.28125 8.042969 11.042968 10.175782l24.417969 10.894531c3.519531 1.574219 5.488281 5.375 4.734375 9.15625l-13.933594 70.015625c-1.472656 7.367188-2.195312 14.824219-2.195312 22.25 0 5.851562.464844 11.683594 1.363281 17.453125 9.277344.773437 18.363281 2.730469 27.191406 5.785156 3.167969 1.09375 6.335938-1.5625 5.792969-4.871093-.996094-6.0625-1.496094-12.203126-1.496094-18.367188 0-7.425781.726563-14.882812 2.199219-22.25l13.929687-70.015625c.757813-3.78125-1.210937-7.582031-4.734374-9.15625zm0 0" fill="#ffb782"/><path d="m224.496094 512h-95.273438v-1.78125c0-15.253906 12.363282-27.617188 27.617188-27.617188h40.039062c15.253906 0 27.617188 12.363282 27.617188 27.617188zm0 0" fill="#ffb464"/><path d="m195.886719 482.601562h-23.363281c15.796874 0 28.605468 12.808594 28.605468 28.609376v.789062h23.367188v-.789062c0-15.800782-12.808594-28.609376-28.609375-28.609376zm0 0" fill="#ff9b54"/><path d="m183.902344 0h-14.085938c-2.070312 0-3.75 1.679688-3.75 3.75v25.667969h21.582032v-25.667969c0-2.070312-1.675782-3.75-3.746094-3.75zm0 0" fill="#707487"/></svg>