<?xml version="1.0" encoding="iso-8859-1"?>
<!-- Generator: Adobe Illustrator 19.0.0, SVG Export Plug-In . SVG Version: 6.00 Build 0)  -->
<svg version="1.1" id="Capa_1" xmlns="http://www.w3.org/2000/svg" xmlns:xlink="http://www.w3.org/1999/xlink" x="0px" y="0px"
	 viewBox="0 0 512 512" style="enable-background:new 0 0 512 512;" xml:space="preserve">
<path style="fill:#FD947A;" d="M256,7.515c-97.392,0-176.344,78.952-176.344,176.344h352.689
	C432.344,86.467,353.392,7.515,256,7.515z"/>
<path style="fill:#FD7959;" d="M272.031,8.248C266.75,7.772,261.406,7.515,256,7.515c-97.392,0-176.344,78.952-176.344,176.344
	h32.063C111.718,91.872,182.154,16.349,272.031,8.248z"/>
<path style="fill:#FFE4DE;" d="M256,7.515c-61.977,0-112.219,78.952-112.219,176.344h224.438
	C368.219,86.467,317.977,7.515,256,7.515z"/>
<path style="fill:#FD947A;" d="M256,7.515c-26.562,0-48.094,78.952-48.094,176.344h96.188C304.094,86.467,282.562,7.515,256,7.515z"
	/>
<circle style="fill:#FDE180;" cx="256" cy="400.282" r="104.204"/>
<circle style="fill:#FCDA60;" cx="256" cy="400.282" r="80.157"/>
<path d="M438.273,188.465c1.016-1.307,1.586-2.947,1.586-4.606c0-37.591-11.268-73.738-32.588-104.533
	c-2.362-3.413-7.043-4.263-10.455-1.901c-3.413,2.363-4.264,7.044-1.902,10.456c18.147,26.213,28.362,56.653,29.751,88.464h-49.037
	c-1.182-45.704-13.123-88.504-33.938-121.215c-6.908-10.854-14.546-20.211-22.75-27.986c19.551,7.851,37.622,19.391,53.276,34.252
	c3.01,2.857,7.766,2.734,10.625-0.277c2.858-3.01,2.734-7.766-0.276-10.624C348.264,17.933,303.316,0,256,0
	C154.619,0,72.141,82.479,72.141,183.859c0,2.534,1.337,4.984,3.481,6.34l158.087,100.6
	c-50.958,10.359-89.427,55.511-89.427,109.482C144.282,461.883,194.399,512,256,512s111.718-50.117,111.718-111.718
	c0-53.97-38.469-99.123-89.427-109.482l158.087-100.6C437.104,189.741,437.749,189.14,438.273,188.465z M282.757,61.141
	c8.43,30.912,13.279,71.58,13.779,115.203h-81.072c0.5-43.623,5.348-84.291,13.779-115.203
	c9.282-34.035,20.215-46.112,26.757-46.112S273.475,27.106,282.757,61.141z M292.698,191.374L256,277.001l-36.698-85.627H292.698z
	 M228.895,20.807c-5.305,9.195-10.057,21.364-14.152,36.38c-8.768,32.148-13.801,74.217-14.307,119.158h-49.04
	c1.164-42.862,12.278-82.795,31.592-113.145C196.058,42.663,211.82,28.233,228.895,20.807z M143.781,191.374h59.17l36.558,85.304
	l-134.048-85.304H143.781z M309.05,191.374h59.17h38.32l-134.048,85.304L309.05,191.374z M329.011,63.199
	c19.314,30.35,30.427,70.283,31.592,113.145h-49.04c-0.506-44.941-5.539-87.01-14.306-119.157
	c-4.095-15.016-8.847-27.185-14.152-36.38C300.18,28.233,315.942,42.663,329.011,63.199z M192.95,27.25
	c-8.162,7.753-15.764,17.074-22.641,27.88c-20.815,32.71-32.755,75.509-33.937,121.214H87.336
	C90.309,108.767,133.2,51.391,192.95,27.25z M352.689,400.282c0,53.314-43.375,96.689-96.689,96.689s-96.689-43.375-96.689-96.689
	s43.375-96.689,96.689-96.689S352.689,346.968,352.689,400.282z"/>
<path d="M249.888,320.125v16.707c-17.973,1.767-32.063,16.965-32.063,35.395c0,19.613,15.956,35.569,35.569,35.569h8.016
	c11.326,0,20.54,9.214,20.54,20.54c0,11.326-9.214,20.54-20.54,20.54h-12.023c-9.116,0-16.532-7.417-16.532-16.532
	c0-4.15-3.364-7.515-7.515-7.515c-4.151,0-7.515,3.365-7.515,7.515c0,17.403,14.159,31.562,31.562,31.562h0.501v16.532
	c0,4.15,3.364,7.515,7.515,7.515c4.151,0,7.515-3.365,7.515-7.515v-16.707c17.973-1.767,32.063-16.965,32.063-35.395
	c0-19.613-15.956-35.569-35.569-35.569h-8.016c-11.326,0-20.54-9.214-20.54-20.54c0-11.326,9.214-20.54,20.54-20.54h12.023
	c9.116,0,16.532,7.417,16.532,16.532v8.016c0,4.15,3.364,7.515,7.515,7.515c4.151,0,7.515-3.365,7.515-7.515v-8.016
	c0-17.403-14.159-31.562-31.562-31.562h-0.501v-16.532c0-4.15-3.364-7.515-7.515-7.515
	C253.252,312.611,249.888,315.975,249.888,320.125z"/>
<g>
</g>
<g>
</g>
<g>
</g>
<g>
</g>
<g>
</g>
<g>
</g>
<g>
</g>
<g>
</g>
<g>
</g>
<g>
</g>
<g>
</g>
<g>
</g>
<g>
</g>
<g>
</g>
<g>
</g>
</svg>
