<svg height="512pt" viewBox="-53 0 512 512.001" width="512pt" xmlns="http://www.w3.org/2000/svg"><path d="m405.890625 493.503906c0 10.214844-8.277344 18.496094-18.492187 18.496094h-368.902344c-10.214844 0-18.496094-8.28125-18.496094-18.496094v-454.921875c0-10.214843 8.28125-18.492187 18.496094-18.492187h368.902344c10.214843 0 18.492187 8.277344 18.492187 18.492187zm0 0" fill="#fec478"/><path d="m387.398438 20.089844h-17.125v437.699218c0 10.730469-8.699219 19.429688-19.429688 19.429688h-350.84375v16.285156c0 10.214844 8.28125 18.496094 18.496094 18.496094h368.902344c10.214843 0 18.492187-8.28125 18.492187-18.496094v-454.921875c0-10.214843-8.277344-18.492187-18.492187-18.492187zm0 0" fill="#cc9d5f"/><path d="m365.714844 462.367188c0 5.210937-4.222656 9.429687-9.429688 9.429687h-306.679687c-5.207031 0-9.425781-4.222656-9.425781-9.429687v-392.648438c0-5.207031 4.222656-9.425781 9.425781-9.425781h306.679687c5.210938 0 9.429688 4.21875 9.429688 9.425781zm0 0" fill="#e1e3fa"/><path d="m328.964844 60.289062v340.695313c0 18.8125-15.25 34.0625-34.0625 34.0625h-254.726563v27.320313c0 5.210937 4.222657 9.429687 9.429688 9.429687h306.679687c5.210938 0 9.429688-4.222656 9.429688-9.429687v-392.648438c0-5.207031-4.222656-9.425781-9.429688-9.425781h-27.320312zm0 0" fill="#b1b2c4"/><path d="m278.492188 16.910156c0-9.339844-7.570313-16.910156-16.910157-16.910156h-117.269531c-9.339844 0-16.910156 7.570312-16.910156 16.910156v21.820313c0 9.339843 7.570312 16.914062 16.910156 16.914062h27.042969v7.023438c0 17.449219 14.144531 31.59375 31.589843 31.59375 17.449219 0 31.59375-14.144531 31.59375-31.59375v-7.023438h27.042969c9.339844 0 16.910157-7.574219 16.910157-16.914062zm0 0" fill="#666"/><path d="m207.753906 62.667969c0 12.660156-7.449218 23.574219-18.199218 28.617187 20.464843 9.59375 44.984374-5.074218 44.984374-28.617187v-7.023438h-19.757812c-3.882812 0-7.027344 3.144531-7.027344 7.023438zm0 0" fill="#4d4d4d"/><path d="m261.582031 0h-19.425781c5.4375 3.21875 9.09375 9.125 9.09375 15.898438v23.847656c0 6.773437-3.65625 12.679687-9.09375 15.898437h19.425781c9.339844 0 16.910157-7.574219 16.910157-16.914062v-21.820313c0-9.339844-7.570313-16.910156-16.910157-16.910156zm0 0" fill="#4d4d4d"/><path d="m234.539062 58.136719c-.582031.058593-1.171874.089843-1.769531.089843h1.769531zm0 0" fill="#4d4d4d"/><path d="m136.636719 190.851562h-35.644531c-7.851563 0-14.214844-6.363281-14.214844-14.210937v-35.648437c0-7.847657 6.363281-14.210938 14.214844-14.210938h35.644531c7.851562 0 14.214843 6.363281 14.214843 14.210938v35.648437c0 7.847656-6.363281 14.210937-14.214843 14.210937zm0 0" fill="#9fa2c7"/><path d="m136.636719 298.082031h-35.644531c-7.851563 0-14.214844-6.363281-14.214844-14.214843v-35.644532c0-7.851562 6.363281-14.214844 14.214844-14.214844h35.644531c7.851562 0 14.214843 6.363282 14.214843 14.214844v35.644532c0 7.851562-6.363281 14.214843-14.214843 14.214843zm0 0" fill="#9fa2c7"/><path d="m136.636719 405.308594h-35.644531c-7.851563 0-14.214844-6.363282-14.214844-14.214844v-35.644531c0-7.851563 6.363281-14.214844 14.214844-14.214844h35.644531c7.851562 0 14.214843 6.363281 14.214843 14.214844v35.644531c0 7.851562-6.363281 14.214844-14.214843 14.214844zm0 0" fill="#9fa2c7"/><g fill="#666"><path d="m185.191406 166.542969h133.921875c4.269531 0 7.726563-3.457031 7.726563-7.726563 0-4.265625-3.457032-7.726562-7.726563-7.726562h-133.921875c-4.269531 0-7.726562 3.460937-7.726562 7.726562 0 4.269532 3.457031 7.726563 7.726562 7.726563zm0 0"/><path d="m185.191406 273.769531h133.921875c4.269531 0 7.726563-3.457031 7.726563-7.722656 0-4.269531-3.457032-7.726563-7.726563-7.726563h-133.921875c-4.269531 0-7.726562 3.457032-7.726562 7.726563 0 4.265625 3.457031 7.722656 7.726562 7.722656zm0 0"/><path d="m185.191406 380.996094h133.921875c4.269531 0 7.726563-3.457032 7.726563-7.722656 0-4.269532-3.457032-7.726563-7.726563-7.726563h-133.921875c-4.269531 0-7.726562 3.457031-7.726562 7.726563 0 4.265624 3.457031 7.722656 7.726562 7.722656zm0 0"/></g></svg>